<svg width="16" height="19" viewBox="0 0 13 16" fill="none" xmlns="http://www.w3.org/2000/svg">
<path d="M1.625 16C1.39479 16 1.20182 15.9193 1.04609 15.7579C0.890365 15.5965 0.8125 15.3965 0.8125 15.1579V13.4316C0.56875 13.1509 0.372396 12.8386 0.223437 12.4947C0.0744792 12.1509 0 11.7754 0 11.3684V3.36842C0 2.20351 0.521354 1.35088 1.56406 0.810526C2.60677 0.270175 4.25208 0 6.5 0C8.82917 0 10.4948 0.259649 11.4969 0.778947C12.499 1.29825 13 2.1614 13 3.36842V11.3684C13 11.7754 12.9255 12.1509 12.7766 12.4947C12.6276 12.8386 12.4312 13.1509 12.1875 13.4316V15.1579C12.1875 15.3965 12.1096 15.5965 11.9539 15.7579C11.7982 15.9193 11.6052 16 11.375 16H10.5625C10.3323 16 10.1393 15.9193 9.98359 15.7579C9.82786 15.5965 9.75 15.3965 9.75 15.1579V14.3158H3.25V15.1579C3.25 15.3965 3.17214 15.5965 3.01641 15.7579C2.86068 15.9193 2.66771 16 2.4375 16H1.625ZM6.54062 2.52632H11.0906H1.99062H6.54062ZM9.75 8.42105H1.625H11.375H9.75ZM1.625 6.73684H11.375V4.21053H1.625V6.73684ZM3.65625 11.7895C3.99479 11.7895 4.28255 11.6667 4.51953 11.4211C4.75651 11.1754 4.875 10.8772 4.875 10.5263C4.875 10.1754 4.75651 9.87719 4.51953 9.63158C4.28255 9.38597 3.99479 9.26316 3.65625 9.26316C3.31771 9.26316 3.02995 9.38597 2.79297 9.63158C2.55599 9.87719 2.4375 10.1754 2.4375 10.5263C2.4375 10.8772 2.55599 11.1754 2.79297 11.4211C3.02995 11.6667 3.31771 11.7895 3.65625 11.7895ZM9.34375 11.7895C9.68229 11.7895 9.97005 11.6667 10.207 11.4211C10.444 11.1754 10.5625 10.8772 10.5625 10.5263C10.5625 10.1754 10.444 9.87719 10.207 9.63158C9.97005 9.38597 9.68229 9.26316 9.34375 9.26316C9.00521 9.26316 8.71745 9.38597 8.48047 9.63158C8.24349 9.87719 8.125 10.1754 8.125 10.5263C8.125 10.8772 8.24349 11.1754 8.48047 11.4211C8.71745 11.6667 9.00521 11.7895 9.34375 11.7895ZM1.99062 2.52632H11.0906C10.8875 2.28772 10.4508 2.08772 9.78047 1.92632C9.11016 1.76491 8.03021 1.68421 6.54062 1.68421C5.09167 1.68421 4.03203 1.77193 3.36172 1.94737C2.69141 2.12281 2.23438 2.31579 1.99062 2.52632ZM3.25 12.6316H9.75C10.1969 12.6316 10.5794 12.4667 10.8977 12.1368C11.2159 11.807 11.375 11.4105 11.375 10.9474V8.42105H1.625V10.9474C1.625 11.4105 1.78411 11.807 2.10234 12.1368C2.42057 12.4667 2.80312 12.6316 3.25 12.6316Z" fill="currentColor"/>
</svg>
